<svg xmlns="http://www.w3.org/2000/svg" viewBox="0 0 512 512"><g id="Body_Weight"><path d="M391.2861,107.0547H120.7139a24.7377,24.7377,0,0,0-24.71,24.7095V380.2358a24.7377,24.7377,0,0,0,24.71,24.7095H391.2861a24.7377,24.7377,0,0,0,24.71-24.7095V131.7642A24.7377,24.7377,0,0,0,391.2861,107.0547Zm-86.333,77.6113H207.0469v-2.6391c0-21.8365,21.96-39.6016,48.9531-39.6016s48.9531,17.7651,48.9531,39.6016ZM256,129.4253c-19.8911,0-37.61,8.0093-48.9531,20.4192v-29.79h97.9062v29.79C293.61,137.4346,275.8911,129.4253,256,129.4253ZM194.0469,197.666H317.9531V120.0547h73.333a11.7229,11.7229,0,0,1,11.71,11.7095V380.2358a11.7229,11.7229,0,0,1-11.71,11.7095H120.7139a11.7229,11.7229,0,0,1-11.71-11.7095V131.7642a11.7229,11.7229,0,0,1,11.71-11.7095h73.333Z"/><rect x="249.5" y="150.6143" width="13" height="26.2031"/><path d="M360.6279,222.3433a39.6172,39.6172,0,0,0-30.4511-6.4136l-2.2539.44a39.8626,39.8626,0,0,0-31.99,43.8789,106.7412,106.7412,0,0,1-8.539,55.357A39.8628,39.8628,0,0,0,304.68,367.085l2.0137,1.0966a39.6838,39.6838,0,0,0,19.0361,4.8892,40.1123,40.1123,0,0,0,11.9307-1.8286,39.5779,39.5779,0,0,0,23.7421-20.0733,166.0844,166.0844,0,0,0,15.8145-102.5322A39.57,39.57,0,0,0,360.6279,222.3433ZM349.8027,345.2979A26.9178,26.9178,0,0,1,312.91,356.7646l-2.0137-1.0966A26.9433,26.9433,0,0,1,299.29,320.8486a121.2242,121.2242,0,0,0,9.5645-62.0156,26.9451,26.9451,0,0,1,21.5615-29.7046l2.25-.4389A26.92,26.92,0,0,1,364.3887,250.74,153.1627,153.1627,0,0,1,349.8027,345.2979Z"/><path d="M216.0674,260.248A39.861,39.861,0,0,0,184.08,216.3706l-2.2559-.4409a39.92,39.92,0,0,0-47.041,32.707,166.0844,166.0844,0,0,0,15.8145,102.5322A39.5779,39.5779,0,0,0,174.34,371.2422a40.1183,40.1183,0,0,0,11.9317,1.8286,39.6832,39.6832,0,0,0,19.0332-4.8882l2.0176-1.0986a39.8624,39.8624,0,0,0,17.2841-51.4785A106.7423,106.7423,0,0,1,216.0674,260.248Zm-14.9619,95.419-2.0176,1.0986a26.9177,26.9177,0,0,1-36.8906-11.4677,153.1627,153.1627,0,0,1-14.586-94.5577,26.9429,26.9429,0,0,1,26.4951-22.5595,27.29,27.29,0,0,1,5.2286.5088l2.2519.44a26.9435,26.9435,0,0,1,21.5586,29.7031,121.2253,121.2253,0,0,0,9.5645,62.0161A26.9429,26.9429,0,0,1,201.1055,355.667Z"/></g></svg>